# Blender v2.78 (sub 0) OBJ File: ''
# www.blender.org
o Cube.001
v -0.499988 0.499988 0.499988
v -0.499988 0.499988 -0.499988
v 0.499988 0.499988 -0.499988
v 0.499988 0.499988 0.499988
v -0.499988 -0.499988 0.499988
v 0.499988 -0.499988 0.499988
v 0.499988 -0.499988 -0.499988
v -0.499988 -0.499988 -0.499988
v -0.499988 -0.499988 0.499988
v -0.499988 -0.499988 0.499988
v 0.499988 -0.499988 0.499988
v 0.499988 -0.499988 0.499988
v 0.499988 0.499988 -0.499988
v 0.499988 0.499988 -0.499988
v 0.499988 -0.499988 -0.499988
v 0.499988 -0.499988 -0.499988
v -0.499988 -0.499988 -0.499988
v -0.499988 -0.499988 -0.499988
v -0.499988 0.499988 0.499988
v -0.499988 0.499988 0.499988
v -0.499988 0.499988 -0.499988
v -0.499988 0.499988 -0.499988
v 0.499988 0.499988 0.499988
v 0.499988 0.499988 0.499988
vt 0.6669 0.3331
vt 0.6669 0.0002
vt 0.9998 0.0002
vt 0.9998 0.3331
vt 0.0002 0.6665
vt 0.0002 0.3335
vt 0.3331 0.3335
vt 0.3331 0.6665
vt 0.3331 0.3331
vt 0.0002 0.3331
vt 0.0002 0.0002
vt 0.3331 0.0002
vt 0.3335 0.6665
vt 0.3335 0.3335
vt 0.6665 0.3335
vt 0.6665 0.6665
vt 0.6665 0.0002
vt 0.6665 0.3331
vt 0.3335 0.3331
vt 0.3335 0.0002
vt 0.0002 0.9998
vt 0.0002 0.6669
vt 0.3331 0.6669
vt 0.3331 0.9998
vn 0.0000 -1.0000 -0.0000
vn 0.0000 1.0000 0.0000
vn 1.0000 -0.0000 0.0000
vn 0.0000 -0.0000 1.0000
vn -1.0000 0.0000 0.0000
vn 0.0000 0.0000 -1.0000
s 1
f 19/1/1 21/2/1 14/3/1 24/4/1
f 9/5/2 11/6/2 16/7/2 17/8/2
f 20/9/3 10/10/3 18/11/3 22/12/3
f 2/13/4 8/14/4 15/15/4 13/16/4
f 3/17/5 7/18/5 12/19/5 23/20/5
f 5/21/6 1/22/6 4/23/6 6/24/6
